<svg width="37" height="39" viewBox="0 0 37 39" fill="none" xmlns="http://www.w3.org/2000/svg">
<path d="M13.8748 16.25C15.5777 16.25 16.9582 14.7949 16.9582 13C16.9582 11.2051 15.5777 9.75 13.8748 9.75C12.172 9.75 10.7915 11.2051 10.7915 13C10.7915 14.7949 12.172 16.25 13.8748 16.25Z" stroke="#00166A" stroke-width="1.5" stroke-linecap="round" stroke-linejoin="round"/>
<path d="M20.0418 3.25H13.8752C6.16683 3.25 3.0835 6.5 3.0835 14.625V24.375C3.0835 32.5 6.16683 35.75 13.8752 35.75H23.1252C30.8335 35.75 33.9168 32.5 33.9168 24.375V16.25" stroke="#00166A" stroke-width="1.5" stroke-linecap="round" stroke-linejoin="round"/>
<path d="M27.75 3.25V13L30.8333 9.75" stroke="#00166A" stroke-width="1.5" stroke-linecap="round" stroke-linejoin="round"/>
<path d="M27.7498 13L24.6665 9.75" stroke="#00166A" stroke-width="1.5" stroke-linecap="round" stroke-linejoin="round"/>
<path d="M4.11621 30.7937L11.7166 25.415C12.9345 24.5537 14.692 24.6512 15.7866 25.6425L16.2954 26.1137C17.4979 27.2025 19.4404 27.2025 20.6429 26.1137L27.0562 20.3125C28.2587 19.2237 30.2012 19.2237 31.4037 20.3125L33.9166 22.5875" stroke="#00166A" stroke-width="1.5" stroke-linecap="round" stroke-linejoin="round"/>
</svg>
