<svg xmlns="http://www.w3.org/2000/svg" xmlns:xlink="http://www.w3.org/1999/xlink" width="1920" zoomAndPan="magnify" viewBox="0 0 1440 809.999993" height="1080" preserveAspectRatio="xMidYMid meet" version="1.0"><defs><clipPath id="1ed95c3dd1"><path d="M 376.53125 0.761719 L 1094.28125 0.761719 L 1094.28125 187 L 376.53125 187 Z M 376.53125 0.761719 " clip-rule="nonzero"/></clipPath><clipPath id="e769a25d3a"><path d="M 376.53125 272 L 907 272 L 907 565 L 376.53125 565 Z M 376.53125 272 " clip-rule="nonzero"/></clipPath><clipPath id="2c60833b68"><path d="M 376.53125 507.09375 L 563 507.09375 L 563 809.308594 L 376.53125 809.308594 Z M 376.53125 507.09375 " clip-rule="nonzero"/></clipPath><clipPath id="d1fc3c65ac"><path d="M 376.53125 458 L 563 458 L 563 565 L 376.53125 565 Z M 376.53125 458 " clip-rule="nonzero"/></clipPath></defs><g clip-path="url(#1ed95c3dd1)"><path fill="#3e2adf" d="M 906.714844 186.617188 L 376.53125 186.617188 C 376.53125 186.617188 376.53125 0.761719 564.140625 0.761719 L 1094.324219 0.761719 L 1050.363281 79.527344 C 1012.0625 148.148438 960.46875 186.617188 906.714844 186.617188 " fill-opacity="1" fill-rule="nonzero"/></g><g clip-path="url(#e769a25d3a)"><path fill="#14208d" d="M 376.53125 272.257812 L 376.53125 564.074219 C 376.539062 455.949219 562.347656 458.101562 562.347656 458.101562 L 719.105469 458.101562 C 772.847656 458.101562 824.449219 419.644531 862.753906 351.011719 L 906.714844 272.257812 L 376.53125 272.257812 " fill-opacity="1" fill-rule="nonzero"/></g><g clip-path="url(#2c60833b68)"><path fill="#4567e1" d="M 376.53125 564.074219 L 376.53125 809.308594 L 455.273438 765.34375 C 523.898438 727.035156 562.347656 675.425781 562.347656 621.671875 L 562.347656 521.390625 C 512.816406 507.296875 405.28125 486.84375 376.53125 564.074219 " fill-opacity="1" fill-rule="nonzero"/></g><g clip-path="url(#d1fc3c65ac)"><path fill="#161034" d="M 376.53125 564.074219 C 405.28125 486.84375 512.816406 507.296875 562.347656 521.390625 L 562.347656 458.101562 C 562.347656 458.101562 376.539062 455.949219 376.53125 564.074219 " fill-opacity="1" fill-rule="nonzero"/></g></svg>