<svg width="101" height="95" viewBox="0 0 101 95" fill="none" xmlns="http://www.w3.org/2000/svg">
<path d="M88.375 23.6708C74.3613 22.3646 60.2633 21.6917 46.2075 21.6917C37.875 21.6917 29.5425 22.0875 21.21 22.8792L12.625 23.6708" stroke="black" stroke-width="4" stroke-linecap="round" stroke-linejoin="round"/>
<path d="M35.771 19.673L36.6968 14.4876C37.3702 10.7272 37.8752 7.91675 44.9872 7.91675H56.0131C63.1252 7.91675 63.6722 10.8855 64.3035 14.5272L65.2293 19.673" stroke="black" stroke-width="4" stroke-linecap="round" stroke-linejoin="round"/>
<path d="M79.327 36.1792L76.5916 76.0396C76.1287 82.2542 75.7499 87.0834 64.0087 87.0834H36.9912C25.2499 87.0834 24.8712 82.2542 24.4083 76.0396L21.6729 36.1792" stroke="black" stroke-width="4" stroke-linecap="round" stroke-linejoin="round"/>
<path d="M43.4722 65.3125H57.4859" stroke="black" stroke-width="4" stroke-linecap="round" stroke-linejoin="round"/>
<path d="M39.979 49.4792H61.0207" stroke="black" stroke-width="4" stroke-linecap="round" stroke-linejoin="round"/>
</svg>
